<!-- created by combining https://icons.getbootstrap.com/icons/cursor-text/ in .NET brand color with https://icons.getbootstrap.com/icons/braces/ -->
<svg xmlns="http://www.w3.org/2000/svg" xml:space="preserve" width="16" height="16" fill="#512bd4" class="bi bi-cursor-text"><path d="M5 2a.5.5 0 0 1 .5-.5c.862 0 1.573.287 2.06.566.174.099.321.198.44.286.119-.088.266-.187.44-.286A4.165 4.165 0 0 1 10.5 1.5a.5.5 0 0 1 0 1c-.638 0-1.177.213-1.564.434a3.49 3.49 0 0 0-.436.294V7.5H9a.5.5 0 0 1 0 1h-.5v4.272c.1.08.248.187.436.294.387.221.926.434 1.564.434a.5.5 0 0 1 0 1 4.165 4.165 0 0 1-2.06-.566A4.561 4.561 0 0 1 8 13.65a4.561 4.561 0 0 1-.44.285 4.165 4.165 0 0 1-2.06.566.5.5 0 0 1 0-1c.638 0 1.177-.213 1.564-.434.188-.107.335-.214.436-.294V8.5H7a.5.5 0 0 1 0-1h.5V3.228a3.49 3.49 0 0 0-.436-.294A3.166 3.166 0 0 0 5.5 2.5.5.5 0 0 1 5 2zm3.352 1.355zm-.704 9.29z"/><path d="M2.114 8.063V7.9c1.005-.102 1.497-.615 1.497-1.6V4.503c0-1.094.39-1.538 1.354-1.538h.273V2h-.376C3.25 2 2.49 2.759 2.49 4.352v1.524c0 1.094-.376 1.456-1.49 1.456v1.299c1.114 0 1.49.362 1.49 1.456v1.524c0 1.593.759 2.352 2.372 2.352h.376v-.964h-.273c-.964 0-1.354-.444-1.354-1.538V9.663c0-.984-.492-1.497-1.497-1.6zM13.886 7.9v.163c-1.005.103-1.497.616-1.497 1.6v1.798c0 1.094-.39 1.538-1.354 1.538h-.273v.964h.376c1.613 0 2.372-.759 2.372-2.352v-1.524c0-1.094.376-1.456 1.49-1.456V7.332c-1.114 0-1.49-.362-1.49-1.456V4.352C13.51 2.759 12.75 2 11.138 2h-.376v.964h.273c.964 0 1.354.444 1.354 1.538V6.3c0 .984.492 1.497 1.497 1.6z" style="fill:#e6edf3" transform="matrix(.72135 0 0 .6853 2.23 2.53)"/></svg>
